{
    "asset" : {
        "generator" : "Khronos glTF Blender I/O v3.4.50",
        "version" : "2.0"
    },
    "scene" : 0,
    "scenes" : [
        {
            "name" : "Scene",
            "nodes" : [
                0,
                1
            ]
        }
    ],
    "nodes" : [
        {
            "mesh" : 0,
            "name" : "Torus",
            "rotation" : [
                -0.21877847611904144,
                -0.1297927051782608,
                0.030326174572110176,
                0.9666282534599304
            ],
            "scale" : [
                0.33670365810394287,
                0.33670368790626526,
                0.33670365810394287
            ],
            "translation" : [
                0.000947716529481113,
                0.5181005001068115,
                -0.0015038496349006891
            ]
        },
        {
            "mesh" : 1,
            "name" : "Torus.001",
            "rotation" : [
                -0.21877847611904144,
                -0.1297927051782608,
                0.030326174572110176,
                0.9666282534599304
            ],
            "scale" : [
                0.33670365810394287,
                0.33670368790626526,
                0.33670365810394287
            ],
            "translation" : [
                0.000947716529481113,
                0.5181005001068115,
                -0.0015038496349006891
            ]
        }
    ],
    "materials" : [
        {
            "doubleSided" : true,
            "name" : "Material.002",
            "pbrMetallicRoughness" : {
                "baseColorTexture" : {
                    "index" : 0
                },
                "metallicFactor" : 0,
                "roughnessFactor" : 0.5
            }
        },
        {
            "doubleSided" : true,
            "name" : "Material.001",
            "pbrMetallicRoughness" : {
                "baseColorFactor" : [
                    0.08650044351816177,
                    0.03189600259065628,
                    0.019382363185286522,
                    1
                ],
                "metallicFactor" : 0,
                "roughnessFactor" : 0.15140846371650696
            }
        }
    ],
    "meshes" : [
        {
            "name" : "Torus",
            "primitives" : [
                {
                    "attributes" : {
                        "POSITION" : 0,
                        "TEXCOORD_0" : 1,
                        "NORMAL" : 2
                    },
                    "indices" : 3,
                    "material" : 0
                }
            ]
        },
        {
            "name" : "Torus.001",
            "primitives" : [
                {
                    "attributes" : {
                        "COLOR_0" : 4,
                        "POSITION" : 5,
                        "TEXCOORD_0" : 6,
                        "NORMAL" : 7
                    },
                    "indices" : 8,
                    "material" : 1
                }
            ]
        }
    ],
    "textures" : [
        {
            "sampler" : 0,
            "source" : 0
        }
    ],
    "images" : [
        {
            "bufferView" : 4,
            "mimeType" : "image/png",
            "name" : "dount base"
        }
    ],
    "accessors" : [
        {
            "bufferView" : 0,
            "componentType" : 5126,
            "count" : 2673,
            "max" : [
                1.5956027507781982,
                0.6771422028541565,
                1.5956027507781982
            ],
            "min" : [
                -1.5926419496536255,
                -0.6709396243095398,
                -1.5987299680709839
            ],
            "type" : "VEC3"
        },
        {
            "bufferView" : 1,
            "componentType" : 5126,
            "count" : 2673,
            "type" : "VEC2"
        },
        {
            "bufferView" : 2,
            "componentType" : 5126,
            "count" : 2673,
            "type" : "VEC3"
        },
        {
            "bufferView" : 3,
            "componentType" : 5123,
            "count" : 15360,
            "type" : "SCALAR"
        },
        {
            "bufferView" : 5,
            "componentType" : 5126,
            "count" : 11888,
            "type" : "VEC4"
        },
        {
            "bufferView" : 6,
            "componentType" : 5126,
            "count" : 11888,
            "max" : [
                1.6251037120819092,
                0.7264249920845032,
                1.6334301233291626
            ],
            "min" : [
                -1.6448451280593872,
                -0.33464547991752625,
                -1.6479462385177612
            ],
            "type" : "VEC3"
        },
        {
            "bufferView" : 7,
            "componentType" : 5126,
            "count" : 11888,
            "type" : "VEC2"
        },
        {
            "bufferView" : 8,
            "componentType" : 5126,
            "count" : 11888,
            "type" : "VEC3"
        },
        {
            "bufferView" : 9,
            "componentType" : 5123,
            "count" : 70848,
            "type" : "SCALAR"
        }
    ],
    "bufferViews" : [
        {
            "buffer" : 0,
            "byteLength" : 32076,
            "byteOffset" : 0,
            "target" : 34962
        },
        {
            "buffer" : 0,
            "byteLength" : 21384,
            "byteOffset" : 32076,
            "target" : 34962
        },
        {
            "buffer" : 0,
            "byteLength" : 32076,
            "byteOffset" : 53460,
            "target" : 34962
        },
        {
            "buffer" : 0,
            "byteLength" : 30720,
            "byteOffset" : 85536,
            "target" : 34963
        },
        {
            "buffer" : 0,
            "byteLength" : 22276,
            "byteOffset" : 116256
        },
        {
            "buffer" : 0,
            "byteLength" : 190208,
            "byteOffset" : 138532,
            "target" : 34962
        },
        {
            "buffer" : 0,
            "byteLength" : 142656,
            "byteOffset" : 328740,
            "target" : 34962
        },
        {
            "buffer" : 0,
            "byteLength" : 95104,
            "byteOffset" : 471396,
            "target" : 34962
        },
        {
            "buffer" : 0,
            "byteLength" : 142656,
            "byteOffset" : 566500,
            "target" : 34962
        },
        {
            "buffer" : 0,
            "byteLength" : 141696,
            "byteOffset" : 709156,
            "target" : 34963
        }
    ],
    "samplers" : [
        {
            "magFilter" : 9729,
            "minFilter" : 9987
        }
    ],
    "buffers" : [
        {
            "byteLength" : 850852,
            "uri" : "data:application/octet-stream;base64,"
        }
    ]
}
