<svg xmlns="http://www.w3.org/2000/svg" width="148.439" height="256.948" viewBox="0 0 148.439 256.948">
  <g id="brush_logo" transform="translate(-9604.842 856.974)">
    <path id="Path_348" data-name="Path 348" d="M168.96,52.939a230.216,230.216,0,0,0-.029-48.067,5.4,5.4,0,0,0-9.15-3.319,186.122,186.122,0,0,0-29.767,38.8Z" transform="translate(9583.078 -856.974)" fill="#fff"/>
    <path id="Path_349" data-name="Path 349" d="M145.393,11.427C130.567,43.4,124.272,79.671,123.977,119a5.391,5.391,0,0,0,8.942,4.089c29.975-26.767,49.1-59.274,56.685-97.867Z" transform="translate(9559.904 -813.111)" fill="#fff"/>
    <path id="Path_350" data-name="Path 350" d="M186.977,34.791C210.57,62.12,197.331,135.832,107.642,121.6c44.8-26.535,14.71-87.1,79.335-86.805" transform="translate(9497.2 -723.429)" fill="#5b4baf"/>
    <path id="Path_351" data-name="Path 351" d="M108.718,85.9c8.647-5.676,21.063-16.737,25.829-42.062,0,0,7.118,10.969,3.852,20.588s20.327-9.943,20.327-9.943,1.911,1.737-1.737,11.884c-3.648,10.181,20.472-3.614,20.472-3.614-9.823,20.351-42.033,26.767-68.743,23.148" transform="translate(9501.33 -688.681)" fill="#fff"/>
  </g>
</svg>
