<svg xmlns="http://www.w3.org/2000/svg" width="1273" height="1126" viewBox="0 0 1273 1126">
  <g id="cti" transform="translate(-3589 -1440)">
    <rect id="Rectangle_4" data-name="Rectangle 4" width="1273" height="1126" transform="translate(3589 1440)" fill="#fff"/>
    <g id="Group_101" data-name="Group 101" transform="translate(3738.952 1615.852)">
      <g id="Group_100" data-name="Group 100" transform="translate(275.826 0)">
        <path id="Path_340" data-name="Path 340" d="M83.256,0l98.685,249.248L0,144.2Z" transform="translate(138.897 505.603) rotate(-30)" fill="#9acbf4"/>
        <path id="Path_341" data-name="Path 341" d="M3581.846,2158.3s-18.841,19.013-32.446,26.363-19.114,3.617-23.58,0,17.864-18.757,17.864-18.757l57-48.422h9.812v429.352h-67.5v-11.381s28.651-2,31.4-28.65S3581.846,2158.3,3581.846,2158.3Z" transform="translate(-3412.545 -1917.53)" fill="#f0c51d" stroke="#707070" stroke-width="1"/>
        <path id="Path_338" data-name="Path 338" d="M4296.9,1779.308s105.884-42.3,125.541,19.664c5.914,18.638-24.477,108.642-24.477,108.642s-41.339,84.267-93.984,152.616c-286.1,371.447-226.778,40.779-226.778,40.779s-52.91,114.369-20.177,162.531c27.934,41.1,116.348,41.273,279.105-192.8,156.795-225.492,125.507-321.538,86.31-340.755C4374.717,1706.587,4296.9,1779.308,4296.9,1779.308Z" transform="translate(-4046.337 -1725.348)" fill="#063295"/>
        <path id="Path_339" data-name="Path 339" d="M4140.109,1745.542s86.8-27.832,1.893,98.58-84.114,21.816-84.114,21.816-19.8,42.8-7.551,60.827c10.454,15.383,43.543,15.447,104.455-72.154,58.68-84.39,46.972-120.335,32.3-127.527C4169.233,1718.327,4140.109,1745.542,4140.109,1745.542Z" transform="translate(-3990.946 -1591.371)" fill="#063295"/>
      </g>
      <text id="كلية_الاتصالات_و_المعلومات" data-name="كلية الاتصالات و المعلومات" transform="translate(154.869 733.865)" fill="#1a4e74" font-size="88" font-family="SakkalMajalla, Sakkal Majalla"><tspan x="0" y="0">كلية الاتصالات و المعلومات</tspan></text>
    </g>
  </g>
</svg>
