<svg id="logo" xmlns="http://www.w3.org/2000/svg" xmlns:xlink="http://www.w3.org/1999/xlink" width="802.539" height="256.947" viewBox="0 0 802.539 256.947">
  <defs>
    <clipPath id="clip-path">
      <rect id="Rectangle_13" data-name="Rectangle 13" width="802.539" height="256.947" fill="none"/>
    </clipPath>
  </defs>
  <g id="Group_9" data-name="Group 9" transform="translate(0 0)" clip-path="url(#clip-path)">
    <path id="Path_16" data-name="Path 16" d="M127.61,1.73a2.871,2.871,0,0,1,.194-.387.972.972,0,0,0-.194.387" transform="translate(489.85 5.154)" fill="#faa73a"/>
    <path id="Path_17" data-name="Path 17" d="M168.96,52.939a230.216,230.216,0,0,0-.029-48.067,5.4,5.4,0,0,0-9.15-3.319,186.122,186.122,0,0,0-29.767,38.8Z" transform="translate(499.079 -0.001)" fill="#fff"/>
    <path id="Path_18" data-name="Path 18" d="M145.393,11.427C130.567,43.4,124.272,79.671,123.977,119a5.391,5.391,0,0,0,8.942,4.089c29.975-26.767,49.1-59.274,56.685-97.867Z" transform="translate(475.904 43.863)" fill="#fff"/>
    <path id="Path_19" data-name="Path 19" d="M152.13,7.792l88.693,56.564a4.071,4.071,0,0,1,0,6.871l-87.58,55.4a4.063,4.063,0,0,1-6.193-3.968l1.064-7.742a4.014,4.014,0,0,1,1.887-2.9l66.628-40.79a4.073,4.073,0,0,0,.048-6.919l-68.951-43.5a4.062,4.062,0,0,1-1.887-3.435V11.228a4.09,4.09,0,0,1,6.29-3.435" transform="translate(559.829 27.398)" fill="#5b4baf"/>
    <path id="Path_20" data-name="Path 20" d="M90.58,7.793,1.887,64.357a4.071,4.071,0,0,0,0,6.871l87.58,55.4a4.064,4.064,0,0,0,6.193-3.968L94.6,114.921a4.014,4.014,0,0,0-1.887-2.9L26.032,71.179a4.073,4.073,0,0,1-.048-6.919l68.951-43.5a4.062,4.062,0,0,0,1.887-3.435V11.18A4.042,4.042,0,0,0,90.58,7.793" transform="translate(0 27.397)" fill="#5b4baf"/>
    <path id="Path_21" data-name="Path 21" d="M186.977,34.791C210.57,62.12,197.331,135.832,107.642,121.6c44.8-26.535,14.71-87.1,79.335-86.805" transform="translate(413.2 133.544)" fill="#5b4baf"/>
    <path id="Path_22" data-name="Path 22" d="M108.718,85.9c8.647-5.676,21.063-16.737,25.829-42.062,0,0,7.118,10.969,3.852,20.588s20.327-9.943,20.327-9.943,1.911,1.737-1.737,11.884c-3.648,10.181,20.472-3.614,20.472-3.614-9.823,20.351-42.033,26.767-68.743,23.148" transform="translate(417.331 168.293)" fill="#fff"/>
    <path id="Path_23" data-name="Path 23" d="M49.174,12.218h12.1a3.7,3.7,0,0,1,3.7,3.692V84.328a3.7,3.7,0,0,1-3.7,3.692h-12.1a3.691,3.691,0,0,1-3.692-3.692V15.91a3.691,3.691,0,0,1,3.692-3.692" transform="translate(174.59 46.899)" fill="#fff"/>
    <path id="Path_24" data-name="Path 24" d="M55.105,15.929V84.314a3.708,3.708,0,0,0,3.711,3.706H70.889A3.707,3.707,0,0,0,74.6,84.314V15.929a3.711,3.711,0,0,0-3.706-3.711H58.816a3.712,3.712,0,0,0-3.711,3.711" transform="translate(211.529 46.899)" fill="#fff"/>
    <path id="Path_25" data-name="Path 25" d="M64.528,88.02H78.6a2.711,2.711,0,0,0,2.71-2.71V56.172a2.71,2.71,0,0,1,5.076-1.321l9.31,16.626a2.708,2.708,0,0,0,2.366,1.384h11.98a2.708,2.708,0,0,0,2.366-1.384l9.31-16.626a2.711,2.711,0,0,1,5.076,1.326V85.311a2.708,2.708,0,0,0,2.71,2.71h14.071a2.708,2.708,0,0,0,2.71-2.71V14.928a2.708,2.708,0,0,0-2.71-2.71H127.28a2.708,2.708,0,0,0-2.352,1.364L106.4,46a2.709,2.709,0,0,1-4.7,0L83.176,13.582a2.721,2.721,0,0,0-2.356-1.364H64.528a2.711,2.711,0,0,0-2.71,2.71V85.311a2.711,2.711,0,0,0,2.71,2.71" transform="translate(237.298 46.899)" fill="#fff"/>
    <path id="Path_26" data-name="Path 26" d="M28.6,83.133,54.56,14.545a3.61,3.61,0,0,1,3.373-2.327H74.606a3.605,3.605,0,0,1,3.373,2.327l25.964,68.588a3.607,3.607,0,0,1-3.372,4.887H88.227a3.617,3.617,0,0,1-3.392-2.371L69.753,44.327a3.611,3.611,0,0,0-6.8.058L48.7,85.591a3.613,3.613,0,0,1-3.411,2.429H31.968A3.609,3.609,0,0,1,28.6,83.133" transform="translate(108.856 46.899)" fill="#fff"/>
    <path id="Path_27" data-name="Path 27" d="M80.963,83.133l25.964-68.588a3.61,3.61,0,0,1,3.373-2.327h16.674a3.605,3.605,0,0,1,3.372,2.327l25.964,68.588a3.607,3.607,0,0,1-3.373,4.887H140.6a3.617,3.617,0,0,1-3.392-2.371L122.121,44.327a3.611,3.611,0,0,0-6.8.058l-14.25,41.206a3.613,3.613,0,0,1-3.411,2.429H84.336a3.609,3.609,0,0,1-3.373-4.887" transform="translate(309.879 46.899)" fill="#fff"/>
    <path id="Path_28" data-name="Path 28" d="M97.849,12.524s45.841-2.134,57.788,3.634,14.821,62.182,0,70.006-57.788,2.163-57.788,2.163V71.338l29.438.5A15.821,15.821,0,0,0,142.974,59.2a50.917,50.917,0,0,0,1.137-14.506,18.157,18.157,0,0,0-17.2-16.466l-9.576-.542H97.849Z" transform="translate(375.608 46.593)" fill="#fff"/>
  </g>
</svg>
