<svg xmlns="http://www.w3.org/2000/svg" width="316.534" height="291.089" viewBox="0 0 316.534 291.089">
  <path id="menu_icon" d="M276.77,291.089h-237a23,23,0,0,1-23-23V170.748a24.316,24.316,0,0,1-10.689-7.309A25.782,25.782,0,0,1,.542,152.087,24.474,24.474,0,0,1,8.16,128.659L141.379,6.569a25,25,0,0,1,33.782,0L308.38,128.659A24.474,24.474,0,0,1,316,152.088a25.784,25.784,0,0,1-5.538,11.352,24.314,24.314,0,0,1-10.688,7.309v97.341a23,23,0,0,1-23,23ZM136,170.089a11.012,11.012,0,0,0-11,11v90a11.012,11.012,0,0,0,11,11h46a11.012,11.012,0,0,0,11-11v-90a11.012,11.012,0,0,0-11-11Z" transform="translate(-0.002)" fill="#fff"/>
</svg>
